<mxfile host="app.diagrams.net" modified="2024-01-11T14:01:51.795Z" agent="Mozilla/5.0 (Windows NT 10.0; Win64; x64) AppleWebKit/537.36 (KHTML, like Gecko) Chrome/118.0.0.0 YaBrowser/23.11.0.0 Safari/537.36" etag="XvSS3Mvnwml4blO39y93" version="22.1.18" type="github">
  <diagram name="Страница — 1" id="KED3AoEs8DxWTgbVUJmA">
    <mxGraphModel dx="1386" dy="791" grid="1" gridSize="10" guides="1" tooltips="1" connect="1" arrows="1" fold="1" page="1" pageScale="1" pageWidth="1442" pageHeight="2039" math="0" shadow="0">
      <root>
        <mxCell id="0" />
        <mxCell id="1" parent="0" />
        <mxCell id="4-f6MQERAgrReSgXEmcC-1" value="выбор файла" style="rounded=1;whiteSpace=wrap;html=1;" vertex="1" name="Rounded Rectangle" parent="1">
          <mxGeometry x="75" y="120" width="120" height="30" as="geometry" />
        </mxCell>
        <mxCell id="4-f6MQERAgrReSgXEmcC-2" value="выбор функции" style="rounded=1;whiteSpace=wrap;html=1;" vertex="1" name="Rounded Rectangle" parent="1">
          <mxGeometry x="225" y="120" width="120" height="30" as="geometry" />
        </mxCell>
        <mxCell id="4-f6MQERAgrReSgXEmcC-3" value="" style="endArrow=none;dashed=1;html=1;rounded=0;entryX=0.5;entryY=1;entryDx=0;entryDy=0;exitX=0.5;exitY=0;exitDx=0;exitDy=0;startArrow=none;" edge="1" name="Dashed Line" parent="1" target="4-f6MQERAgrReSgXEmcC-1">
          <mxGeometry width="50" height="50" relative="1" as="geometry">
            <mxPoint x="135" y="210" as="sourcePoint" />
            <mxPoint x="155" y="150" as="targetPoint" />
          </mxGeometry>
        </mxCell>
        <mxCell id="4-f6MQERAgrReSgXEmcC-4" value="" style="endArrow=none;dashed=1;html=1;rounded=0;entryX=0.5;entryY=1;entryDx=0;entryDy=0;exitX=0.5;exitY=0.043;exitDx=0;exitDy=0;exitPerimeter=0;" edge="1" name="Dashed Line" parent="1" source="4-f6MQERAgrReSgXEmcC-13" target="4-f6MQERAgrReSgXEmcC-2">
          <mxGeometry width="50" height="50" relative="1" as="geometry">
            <mxPoint x="285" y="255" as="sourcePoint" />
            <mxPoint x="305" y="150" as="targetPoint" />
          </mxGeometry>
        </mxCell>
        <mxCell id="4-f6MQERAgrReSgXEmcC-5" value="" style="endArrow=none;dashed=1;html=1;rounded=0;entryX=0.5;entryY=1;entryDx=0;entryDy=0;exitX=0.5;exitY=0.013;exitDx=0;exitDy=0;exitPerimeter=0;" edge="1" name="Dashed Line" parent="1" source="4-f6MQERAgrReSgXEmcC-11">
          <mxGeometry width="50" height="50" relative="1" as="geometry">
            <mxPoint x="435.6700000000001" y="264.68000000000006" as="sourcePoint" />
            <mxPoint x="435" y="150" as="targetPoint" />
          </mxGeometry>
        </mxCell>
        <mxCell id="4-f6MQERAgrReSgXEmcC-6" value="" style="endArrow=classic;html=1;rounded=0;" edge="1" name="Line" parent="1">
          <mxGeometry width="50" height="50" relative="1" as="geometry">
            <mxPoint x="141" y="285" as="sourcePoint" />
            <mxPoint x="279" y="285" as="targetPoint" />
          </mxGeometry>
        </mxCell>
        <mxCell id="4-f6MQERAgrReSgXEmcC-7" value="указание пути&#xa;" style="text;align=center;fontStyle=1;verticalAlign=middle;spacingLeft=3;spacingRight=3;strokeColor=none;rotatable=0;points=[[0,0.5],[1,0.5]];portConstraint=eastwest;" vertex="1" name="Title" parent="1">
          <mxGeometry x="165" y="240" width="80" height="26" as="geometry" />
        </mxCell>
        <mxCell id="4-f6MQERAgrReSgXEmcC-8" value="ввод ключа" style="rounded=1;whiteSpace=wrap;html=1;" vertex="1" name="Rounded Rectangle" parent="1">
          <mxGeometry x="675" y="120" width="120" height="30" as="geometry" />
        </mxCell>
        <mxCell id="4-f6MQERAgrReSgXEmcC-9" value="" style="endArrow=none;dashed=1;html=1;rounded=0;startArrow=none;entryX=0.5;entryY=1;entryDx=0;entryDy=0;" edge="1" parent="1" target="4-f6MQERAgrReSgXEmcC-8">
          <mxGeometry width="50" height="50" relative="1" as="geometry">
            <mxPoint x="735" y="417" as="sourcePoint" />
            <mxPoint x="810.53" y="135" as="targetPoint" />
          </mxGeometry>
        </mxCell>
        <mxCell id="4-f6MQERAgrReSgXEmcC-10" style="edgeStyle=orthogonalEdgeStyle;rounded=0;orthogonalLoop=1;jettySize=auto;html=1;entryX=0;entryY=0.25;entryDx=0;entryDy=0;exitX=1.071;exitY=0.401;exitDx=0;exitDy=0;exitPerimeter=0;" edge="1" parent="1" source="4-f6MQERAgrReSgXEmcC-11" target="4-f6MQERAgrReSgXEmcC-17">
          <mxGeometry relative="1" as="geometry">
            <mxPoint x="465" y="378" as="sourcePoint" />
            <Array as="points">
              <mxPoint x="510" y="378" />
            </Array>
          </mxGeometry>
        </mxCell>
        <mxCell id="4-f6MQERAgrReSgXEmcC-11" value="" style="html=1;points=[];perimeter=orthogonalPerimeter;" vertex="1" name="Activation" parent="1">
          <mxGeometry x="430" y="330" width="10" height="120" as="geometry" />
        </mxCell>
        <mxCell id="4-f6MQERAgrReSgXEmcC-12" style="edgeStyle=orthogonalEdgeStyle;rounded=0;orthogonalLoop=1;jettySize=auto;html=1;" edge="1" parent="1">
          <mxGeometry relative="1" as="geometry">
            <mxPoint x="430" y="346" as="targetPoint" />
            <mxPoint x="285" y="345.9999999999999" as="sourcePoint" />
          </mxGeometry>
        </mxCell>
        <mxCell id="4-f6MQERAgrReSgXEmcC-13" value="" style="html=1;points=[];perimeter=orthogonalPerimeter;" vertex="1" name="Activation" parent="1">
          <mxGeometry x="280" y="266" width="10" height="94" as="geometry" />
        </mxCell>
        <mxCell id="4-f6MQERAgrReSgXEmcC-14" value="" style="html=1;points=[];perimeter=orthogonalPerimeter;" vertex="1" name="Activation" parent="1">
          <mxGeometry x="130" y="213" width="10" height="80" as="geometry" />
        </mxCell>
        <mxCell id="4-f6MQERAgrReSgXEmcC-15" value="шифрование" style="text;html=1;align=center;verticalAlign=middle;resizable=0;points=[];autosize=1;strokeColor=none;fillColor=none;" vertex="1" parent="1">
          <mxGeometry x="315" y="330" width="90" height="15" as="geometry" />
        </mxCell>
        <mxCell id="4-f6MQERAgrReSgXEmcC-16" value="выбор ключа" style="rounded=1;whiteSpace=wrap;html=1;" vertex="1" name="Rounded Rectangle" parent="1">
          <mxGeometry x="375" y="120" width="120" height="30" as="geometry" />
        </mxCell>
        <mxCell id="4-f6MQERAgrReSgXEmcC-17" value="сгенерированный&lt;br&gt;&amp;nbsp;ключ" style="html=1;" vertex="1" name="Object" parent="1">
          <mxGeometry x="525" y="365" width="110" height="50" as="geometry" />
        </mxCell>
        <mxCell id="4-f6MQERAgrReSgXEmcC-18" value="" style="html=1;points=[];perimeter=orthogonalPerimeter;" vertex="1" name="Activation" parent="1">
          <mxGeometry x="730" y="420" width="10" height="80" as="geometry" />
        </mxCell>
        <mxCell id="4-f6MQERAgrReSgXEmcC-19" value="return" style="html=1;verticalAlign=bottom;endArrow=open;dashed=1;endSize=8;rounded=0;entryX=0.881;entryY=0.608;entryDx=0;entryDy=0;entryPerimeter=0;exitX=0;exitY=0.75;exitDx=0;exitDy=0;" edge="1" parent="1" source="4-f6MQERAgrReSgXEmcC-17" target="4-f6MQERAgrReSgXEmcC-11">
          <mxGeometry relative="1" as="geometry">
            <mxPoint x="530" y="360" as="sourcePoint" />
            <mxPoint x="450" y="360" as="targetPoint" />
          </mxGeometry>
        </mxCell>
        <mxCell id="4-f6MQERAgrReSgXEmcC-20" value="" style="endArrow=classic;html=1;rounded=0;entryX=-0.376;entryY=0.187;entryDx=0;entryDy=0;entryPerimeter=0;exitX=1;exitY=0.867;exitDx=0;exitDy=0;exitPerimeter=0;" edge="1" name="Line" parent="1" source="4-f6MQERAgrReSgXEmcC-11">
          <mxGeometry width="50" height="50" relative="1" as="geometry">
            <mxPoint x="447" y="435" as="sourcePoint" />
            <mxPoint x="729.9999999999998" y="434.96000000000004" as="targetPoint" />
          </mxGeometry>
        </mxCell>
        <mxCell id="4-f6MQERAgrReSgXEmcC-21" value="шифрование" style="rounded=1;whiteSpace=wrap;html=1;" vertex="1" name="Rounded Rectangle" parent="1">
          <mxGeometry x="860" y="120" width="120" height="30" as="geometry" />
        </mxCell>
        <mxCell id="4-f6MQERAgrReSgXEmcC-22" value="" style="html=1;points=[];perimeter=orthogonalPerimeter;" vertex="1" name="Activation" parent="1">
          <mxGeometry x="915" y="480" width="10" height="80" as="geometry" />
        </mxCell>
        <mxCell id="4-f6MQERAgrReSgXEmcC-23" value="" style="endArrow=classic;html=1;rounded=0;entryX=0;entryY=0.101;entryDx=0;entryDy=0;entryPerimeter=0;exitX=0.961;exitY=0.837;exitDx=0;exitDy=0;exitPerimeter=0;" edge="1" name="Directional Connector" parent="1" source="4-f6MQERAgrReSgXEmcC-18" target="4-f6MQERAgrReSgXEmcC-22">
          <mxGeometry width="50" height="50" relative="1" as="geometry">
            <mxPoint x="742" y="488" as="sourcePoint" />
            <mxPoint x="800" y="465" as="targetPoint" />
          </mxGeometry>
        </mxCell>
        <mxCell id="4-f6MQERAgrReSgXEmcC-24" value="" style="endArrow=none;dashed=1;html=1;rounded=0;exitX=0.55;exitY=-0.054;exitDx=0;exitDy=0;exitPerimeter=0;entryX=0.5;entryY=1;entryDx=0;entryDy=0;" edge="1" parent="1" source="4-f6MQERAgrReSgXEmcC-22" target="4-f6MQERAgrReSgXEmcC-21">
          <mxGeometry width="50" height="50" relative="1" as="geometry">
            <mxPoint x="930" y="471" as="sourcePoint" />
            <mxPoint x="930" y="390" as="targetPoint" />
          </mxGeometry>
        </mxCell>
        <mxCell id="4-f6MQERAgrReSgXEmcC-25" value="сохранение" style="rounded=1;whiteSpace=wrap;html=1;" vertex="1" name="Rounded Rectangle" parent="1">
          <mxGeometry x="1035" y="120" width="120" height="30" as="geometry" />
        </mxCell>
        <mxCell id="4-f6MQERAgrReSgXEmcC-26" value="" style="endArrow=none;dashed=1;html=1;rounded=0;exitX=0.5;exitY=0;exitDx=0;exitDy=0;exitPerimeter=0;" edge="1" parent="1" source="4-f6MQERAgrReSgXEmcC-27">
          <mxGeometry width="50" height="50" relative="1" as="geometry">
            <mxPoint x="1095" y="465" as="sourcePoint" />
            <mxPoint x="1095" y="150" as="targetPoint" />
          </mxGeometry>
        </mxCell>
        <mxCell id="4-f6MQERAgrReSgXEmcC-27" value="" style="html=1;points=[];perimeter=orthogonalPerimeter;" vertex="1" name="Activation" parent="1">
          <mxGeometry x="1090" y="540" width="10" height="75" as="geometry" />
        </mxCell>
        <mxCell id="4-f6MQERAgrReSgXEmcC-28" value="" style="endArrow=classic;html=1;rounded=0;exitX=1.05;exitY=0.873;exitDx=0;exitDy=0;exitPerimeter=0;" edge="1" name="Line" parent="1" source="4-f6MQERAgrReSgXEmcC-22">
          <mxGeometry width="50" height="50" relative="1" as="geometry">
            <mxPoint x="930" y="575" as="sourcePoint" />
            <mxPoint x="1088" y="549" as="targetPoint" />
          </mxGeometry>
        </mxCell>
        <mxCell id="4-f6MQERAgrReSgXEmcC-29" value="файл зашифрован" style="rounded=1;whiteSpace=wrap;html=1;" vertex="1" name="Rounded Rectangle" parent="1">
          <mxGeometry x="1215" y="120" width="120" height="30" as="geometry" />
        </mxCell>
        <mxCell id="4-f6MQERAgrReSgXEmcC-30" value="" style="html=1;points=[];perimeter=orthogonalPerimeter;" vertex="1" name="Activation" parent="1">
          <mxGeometry x="1270" y="210" width="10" height="405" as="geometry" />
        </mxCell>
        <mxCell id="4-f6MQERAgrReSgXEmcC-31" value="" style="endArrow=none;dashed=1;html=1;rounded=0;entryX=0.176;entryY=0.996;entryDx=0;entryDy=0;entryPerimeter=0;" edge="1" parent="1">
          <mxGeometry width="50" height="50" relative="1" as="geometry">
            <mxPoint x="134" y="645" as="sourcePoint" />
            <mxPoint x="134.41000000000022" y="293.00000000000006" as="targetPoint" />
          </mxGeometry>
        </mxCell>
        <mxCell id="4-f6MQERAgrReSgXEmcC-32" value="" style="endArrow=none;dashed=1;html=1;rounded=0;entryX=0.471;entryY=1.01;entryDx=0;entryDy=0;entryPerimeter=0;" edge="1" parent="1" target="4-f6MQERAgrReSgXEmcC-13">
          <mxGeometry width="50" height="50" relative="1" as="geometry">
            <mxPoint x="285" y="645" as="sourcePoint" />
            <mxPoint x="285" y="405" as="targetPoint" />
          </mxGeometry>
        </mxCell>
        <mxCell id="4-f6MQERAgrReSgXEmcC-33" value="" style="endArrow=none;dashed=1;html=1;rounded=0;entryX=0.294;entryY=1.032;entryDx=0;entryDy=0;entryPerimeter=0;" edge="1" parent="1" target="4-f6MQERAgrReSgXEmcC-11">
          <mxGeometry width="50" height="50" relative="1" as="geometry">
            <mxPoint x="433" y="645" as="sourcePoint" />
            <mxPoint x="435" y="495" as="targetPoint" />
          </mxGeometry>
        </mxCell>
        <mxCell id="4-f6MQERAgrReSgXEmcC-34" value="" style="endArrow=none;dashed=1;html=1;rounded=0;entryX=0.567;entryY=1.008;entryDx=0;entryDy=0;entryPerimeter=0;" edge="1" parent="1" target="4-f6MQERAgrReSgXEmcC-18">
          <mxGeometry width="50" height="50" relative="1" as="geometry">
            <mxPoint x="735" y="645" as="sourcePoint" />
            <mxPoint x="735" y="510" as="targetPoint" />
          </mxGeometry>
        </mxCell>
        <mxCell id="4-f6MQERAgrReSgXEmcC-35" value="" style="endArrow=none;dashed=1;html=1;rounded=0;" edge="1" parent="1">
          <mxGeometry width="50" height="50" relative="1" as="geometry">
            <mxPoint x="920" y="641" as="sourcePoint" />
            <mxPoint x="920" y="560" as="targetPoint" />
          </mxGeometry>
        </mxCell>
        <mxCell id="4-f6MQERAgrReSgXEmcC-36" value="" style="endArrow=none;dashed=1;html=1;rounded=0;" edge="1" parent="1">
          <mxGeometry width="50" height="50" relative="1" as="geometry">
            <mxPoint x="1095" y="645" as="sourcePoint" />
            <mxPoint x="1095" y="615" as="targetPoint" />
          </mxGeometry>
        </mxCell>
        <mxCell id="4-f6MQERAgrReSgXEmcC-37" value="" style="endArrow=none;dashed=1;html=1;rounded=0;" edge="1" parent="1">
          <mxGeometry width="50" height="50" relative="1" as="geometry">
            <mxPoint x="1275" y="645" as="sourcePoint" />
            <mxPoint x="1275" y="615" as="targetPoint" />
          </mxGeometry>
        </mxCell>
        <mxCell id="4-f6MQERAgrReSgXEmcC-38" value="" style="endArrow=none;dashed=1;html=1;rounded=0;exitX=0.5;exitY=0;exitDx=0;exitDy=0;exitPerimeter=0;" edge="1" parent="1" source="4-f6MQERAgrReSgXEmcC-30">
          <mxGeometry width="50" height="50" relative="1" as="geometry">
            <mxPoint x="1275" y="165" as="sourcePoint" />
            <mxPoint x="1275" y="150" as="targetPoint" />
          </mxGeometry>
        </mxCell>
        <mxCell id="4-f6MQERAgrReSgXEmcC-39" value="" style="endArrow=classic;html=1;rounded=0;exitX=0.5;exitY=0.802;exitDx=0;exitDy=0;exitPerimeter=0;entryX=-0.15;entryY=0.967;entryDx=0;entryDy=0;entryPerimeter=0;" edge="1" name="Directional Connector" parent="1" target="4-f6MQERAgrReSgXEmcC-30">
          <mxGeometry width="50" height="50" relative="1" as="geometry">
            <mxPoint x="1100" y="600.1500000000001" as="sourcePoint" />
            <mxPoint x="1260" y="600" as="targetPoint" />
          </mxGeometry>
        </mxCell>
      </root>
    </mxGraphModel>
  </diagram>
</mxfile>
